<?xml version="1.0" encoding="UTF-8" standalone="no"?>
<!-- This is a Stata 19.5 generated SVG file (http://www.stata.com) -->

<svg version="1.1" width="7.500in" height="4.500in" viewBox="0 0 5400 3240" xmlns="http://www.w3.org/2000/svg" xmlns:xlink="http://www.w3.org/1999/xlink">
	<desc>Stata Graph - Graph</desc>
	<rect x="0" y="0" width="5400" height="3240" style="fill:#FFFFFF;stroke:none"/>
	<rect x="0.00" y="0.00" width="5400.00" height="3240.00" style="fill:#FFFFFF"/>
	<rect x="3.24" y="3.24" width="5393.52" height="3233.52" style="fill:none;stroke:#FFFFFF;stroke-width:6.48"/>
	<rect x="557.04" y="293.96" width="3845.14" height="2472.69" style="fill:#FFFFFF"/>
	<rect x="560.28" y="297.20" width="3838.66" height="2466.21" style="fill:none;stroke:#FFFFFF;stroke-width:6.48"/>
	<line x1="557.04" y1="2695.28" x2="621.84" y2="2695.28" style="stroke:#F0F0F0;stroke-width:9.72"/>
	<line x1="654.24" y1="2695.28" x2="719.04" y2="2695.28" style="stroke:#F0F0F0;stroke-width:9.72"/>
	<line x1="751.44" y1="2695.28" x2="816.24" y2="2695.28" style="stroke:#F0F0F0;stroke-width:9.72"/>
	<line x1="848.64" y1="2695.28" x2="913.44" y2="2695.28" style="stroke:#F0F0F0;stroke-width:9.72"/>
	<line x1="945.84" y1="2695.28" x2="1010.64" y2="2695.28" style="stroke:#F0F0F0;stroke-width:9.72"/>
	<line x1="1043.04" y1="2695.28" x2="1107.84" y2="2695.28" style="stroke:#F0F0F0;stroke-width:9.72"/>
	<line x1="1140.24" y1="2695.28" x2="1205.04" y2="2695.28" style="stroke:#F0F0F0;stroke-width:9.72"/>
	<line x1="1237.44" y1="2695.28" x2="1302.24" y2="2695.28" style="stroke:#F0F0F0;stroke-width:9.72"/>
	<line x1="1334.64" y1="2695.28" x2="1399.44" y2="2695.28" style="stroke:#F0F0F0;stroke-width:9.72"/>
	<line x1="1431.84" y1="2695.28" x2="1496.64" y2="2695.28" style="stroke:#F0F0F0;stroke-width:9.72"/>
	<line x1="1529.04" y1="2695.28" x2="1593.84" y2="2695.28" style="stroke:#F0F0F0;stroke-width:9.72"/>
	<line x1="1626.24" y1="2695.28" x2="1691.04" y2="2695.28" style="stroke:#F0F0F0;stroke-width:9.72"/>
	<line x1="1723.44" y1="2695.28" x2="1788.24" y2="2695.28" style="stroke:#F0F0F0;stroke-width:9.72"/>
	<line x1="1820.64" y1="2695.28" x2="1885.44" y2="2695.28" style="stroke:#F0F0F0;stroke-width:9.72"/>
	<line x1="1917.84" y1="2695.28" x2="1982.64" y2="2695.28" style="stroke:#F0F0F0;stroke-width:9.72"/>
	<line x1="2015.04" y1="2695.28" x2="2079.84" y2="2695.28" style="stroke:#F0F0F0;stroke-width:9.72"/>
	<line x1="2112.24" y1="2695.28" x2="2177.04" y2="2695.28" style="stroke:#F0F0F0;stroke-width:9.72"/>
	<line x1="2209.44" y1="2695.28" x2="2274.24" y2="2695.28" style="stroke:#F0F0F0;stroke-width:9.72"/>
	<line x1="2306.64" y1="2695.28" x2="2371.44" y2="2695.28" style="stroke:#F0F0F0;stroke-width:9.72"/>
	<line x1="2403.84" y1="2695.28" x2="2468.64" y2="2695.28" style="stroke:#F0F0F0;stroke-width:9.72"/>
	<line x1="2501.04" y1="2695.28" x2="2565.84" y2="2695.28" style="stroke:#F0F0F0;stroke-width:9.72"/>
	<line x1="2598.24" y1="2695.28" x2="2663.04" y2="2695.28" style="stroke:#F0F0F0;stroke-width:9.72"/>
	<line x1="2695.44" y1="2695.28" x2="2760.24" y2="2695.28" style="stroke:#F0F0F0;stroke-width:9.72"/>
	<line x1="2792.64" y1="2695.28" x2="2857.44" y2="2695.28" style="stroke:#F0F0F0;stroke-width:9.72"/>
	<line x1="2889.84" y1="2695.28" x2="2954.64" y2="2695.28" style="stroke:#F0F0F0;stroke-width:9.72"/>
	<line x1="2987.04" y1="2695.28" x2="3051.84" y2="2695.28" style="stroke:#F0F0F0;stroke-width:9.72"/>
	<line x1="3084.24" y1="2695.28" x2="3149.04" y2="2695.28" style="stroke:#F0F0F0;stroke-width:9.72"/>
	<line x1="3181.44" y1="2695.28" x2="3246.24" y2="2695.28" style="stroke:#F0F0F0;stroke-width:9.72"/>
	<line x1="3278.64" y1="2695.28" x2="3343.44" y2="2695.28" style="stroke:#F0F0F0;stroke-width:9.72"/>
	<line x1="3375.84" y1="2695.28" x2="3440.64" y2="2695.28" style="stroke:#F0F0F0;stroke-width:9.72"/>
	<line x1="3473.04" y1="2695.28" x2="3537.84" y2="2695.28" style="stroke:#F0F0F0;stroke-width:9.72"/>
	<line x1="3570.24" y1="2695.28" x2="3635.04" y2="2695.28" style="stroke:#F0F0F0;stroke-width:9.72"/>
	<line x1="3667.44" y1="2695.28" x2="3732.24" y2="2695.28" style="stroke:#F0F0F0;stroke-width:9.72"/>
	<line x1="3764.64" y1="2695.28" x2="3829.44" y2="2695.28" style="stroke:#F0F0F0;stroke-width:9.72"/>
	<line x1="3861.84" y1="2695.28" x2="3926.64" y2="2695.28" style="stroke:#F0F0F0;stroke-width:9.72"/>
	<line x1="3959.04" y1="2695.28" x2="4023.84" y2="2695.28" style="stroke:#F0F0F0;stroke-width:9.72"/>
	<line x1="4056.24" y1="2695.28" x2="4121.04" y2="2695.28" style="stroke:#F0F0F0;stroke-width:9.72"/>
	<line x1="4153.44" y1="2695.28" x2="4218.24" y2="2695.28" style="stroke:#F0F0F0;stroke-width:9.72"/>
	<line x1="4250.64" y1="2695.28" x2="4315.44" y2="2695.28" style="stroke:#F0F0F0;stroke-width:9.72"/>
	<line x1="4347.84" y1="2695.28" x2="4402.18" y2="2695.28" style="stroke:#F0F0F0;stroke-width:9.72"/>
	<line x1="557.04" y1="1918.69" x2="621.84" y2="1918.69" style="stroke:#F0F0F0;stroke-width:9.72"/>
	<line x1="654.24" y1="1918.69" x2="719.04" y2="1918.69" style="stroke:#F0F0F0;stroke-width:9.72"/>
	<line x1="751.44" y1="1918.69" x2="816.24" y2="1918.69" style="stroke:#F0F0F0;stroke-width:9.72"/>
	<line x1="848.64" y1="1918.69" x2="913.44" y2="1918.69" style="stroke:#F0F0F0;stroke-width:9.72"/>
	<line x1="945.84" y1="1918.69" x2="1010.64" y2="1918.69" style="stroke:#F0F0F0;stroke-width:9.72"/>
	<line x1="1043.04" y1="1918.69" x2="1107.84" y2="1918.69" style="stroke:#F0F0F0;stroke-width:9.72"/>
	<line x1="1140.24" y1="1918.69" x2="1205.04" y2="1918.69" style="stroke:#F0F0F0;stroke-width:9.72"/>
	<line x1="1237.44" y1="1918.69" x2="1302.24" y2="1918.69" style="stroke:#F0F0F0;stroke-width:9.72"/>
	<line x1="1334.64" y1="1918.69" x2="1399.44" y2="1918.69" style="stroke:#F0F0F0;stroke-width:9.72"/>
	<line x1="1431.84" y1="1918.69" x2="1496.64" y2="1918.69" style="stroke:#F0F0F0;stroke-width:9.72"/>
	<line x1="1529.04" y1="1918.69" x2="1593.84" y2="1918.69" style="stroke:#F0F0F0;stroke-width:9.72"/>
	<line x1="1626.24" y1="1918.69" x2="1691.04" y2="1918.69" style="stroke:#F0F0F0;stroke-width:9.72"/>
	<line x1="1723.44" y1="1918.69" x2="1788.24" y2="1918.69" style="stroke:#F0F0F0;stroke-width:9.72"/>
	<line x1="1820.64" y1="1918.69" x2="1885.44" y2="1918.69" style="stroke:#F0F0F0;stroke-width:9.72"/>
	<line x1="1917.84" y1="1918.69" x2="1982.64" y2="1918.69" style="stroke:#F0F0F0;stroke-width:9.72"/>
	<line x1="2015.04" y1="1918.69" x2="2079.84" y2="1918.69" style="stroke:#F0F0F0;stroke-width:9.72"/>
	<line x1="2112.24" y1="1918.69" x2="2177.04" y2="1918.69" style="stroke:#F0F0F0;stroke-width:9.72"/>
	<line x1="2209.44" y1="1918.69" x2="2274.24" y2="1918.69" style="stroke:#F0F0F0;stroke-width:9.72"/>
	<line x1="2306.64" y1="1918.69" x2="2371.44" y2="1918.69" style="stroke:#F0F0F0;stroke-width:9.72"/>
	<line x1="2403.84" y1="1918.69" x2="2468.64" y2="1918.69" style="stroke:#F0F0F0;stroke-width:9.72"/>
	<line x1="2501.04" y1="1918.69" x2="2565.84" y2="1918.69" style="stroke:#F0F0F0;stroke-width:9.72"/>
	<line x1="2598.24" y1="1918.69" x2="2663.04" y2="1918.69" style="stroke:#F0F0F0;stroke-width:9.72"/>
	<line x1="2695.44" y1="1918.69" x2="2760.24" y2="1918.69" style="stroke:#F0F0F0;stroke-width:9.72"/>
	<line x1="2792.64" y1="1918.69" x2="2857.44" y2="1918.69" style="stroke:#F0F0F0;stroke-width:9.72"/>
	<line x1="2889.84" y1="1918.69" x2="2954.64" y2="1918.69" style="stroke:#F0F0F0;stroke-width:9.72"/>
	<line x1="2987.04" y1="1918.69" x2="3051.84" y2="1918.69" style="stroke:#F0F0F0;stroke-width:9.72"/>
	<line x1="3084.24" y1="1918.69" x2="3149.04" y2="1918.69" style="stroke:#F0F0F0;stroke-width:9.72"/>
	<line x1="3181.44" y1="1918.69" x2="3246.24" y2="1918.69" style="stroke:#F0F0F0;stroke-width:9.72"/>
	<line x1="3278.64" y1="1918.69" x2="3343.44" y2="1918.69" style="stroke:#F0F0F0;stroke-width:9.72"/>
	<line x1="3375.84" y1="1918.69" x2="3440.64" y2="1918.69" style="stroke:#F0F0F0;stroke-width:9.72"/>
	<line x1="3473.04" y1="1918.69" x2="3537.84" y2="1918.69" style="stroke:#F0F0F0;stroke-width:9.72"/>
	<line x1="3570.24" y1="1918.69" x2="3635.04" y2="1918.69" style="stroke:#F0F0F0;stroke-width:9.72"/>
	<line x1="3667.44" y1="1918.69" x2="3732.24" y2="1918.69" style="stroke:#F0F0F0;stroke-width:9.72"/>
	<line x1="3764.64" y1="1918.69" x2="3829.44" y2="1918.69" style="stroke:#F0F0F0;stroke-width:9.72"/>
	<line x1="3861.84" y1="1918.69" x2="3926.64" y2="1918.69" style="stroke:#F0F0F0;stroke-width:9.72"/>
	<line x1="3959.04" y1="1918.69" x2="4023.84" y2="1918.69" style="stroke:#F0F0F0;stroke-width:9.72"/>
	<line x1="4056.24" y1="1918.69" x2="4121.04" y2="1918.69" style="stroke:#F0F0F0;stroke-width:9.72"/>
	<line x1="4153.44" y1="1918.69" x2="4218.24" y2="1918.69" style="stroke:#F0F0F0;stroke-width:9.72"/>
	<line x1="4250.64" y1="1918.69" x2="4315.44" y2="1918.69" style="stroke:#F0F0F0;stroke-width:9.72"/>
	<line x1="4347.84" y1="1918.69" x2="4402.18" y2="1918.69" style="stroke:#F0F0F0;stroke-width:9.72"/>
	<line x1="557.04" y1="1141.93" x2="621.84" y2="1141.93" style="stroke:#F0F0F0;stroke-width:9.72"/>
	<line x1="654.24" y1="1141.93" x2="719.04" y2="1141.93" style="stroke:#F0F0F0;stroke-width:9.72"/>
	<line x1="751.44" y1="1141.93" x2="816.24" y2="1141.93" style="stroke:#F0F0F0;stroke-width:9.72"/>
	<line x1="848.64" y1="1141.93" x2="913.44" y2="1141.93" style="stroke:#F0F0F0;stroke-width:9.72"/>
	<line x1="945.84" y1="1141.93" x2="1010.64" y2="1141.93" style="stroke:#F0F0F0;stroke-width:9.72"/>
	<line x1="1043.04" y1="1141.93" x2="1107.84" y2="1141.93" style="stroke:#F0F0F0;stroke-width:9.72"/>
	<line x1="1140.24" y1="1141.93" x2="1205.04" y2="1141.93" style="stroke:#F0F0F0;stroke-width:9.72"/>
	<line x1="1237.44" y1="1141.93" x2="1302.24" y2="1141.93" style="stroke:#F0F0F0;stroke-width:9.72"/>
	<line x1="1334.64" y1="1141.93" x2="1399.44" y2="1141.93" style="stroke:#F0F0F0;stroke-width:9.72"/>
	<line x1="1431.84" y1="1141.93" x2="1496.64" y2="1141.93" style="stroke:#F0F0F0;stroke-width:9.72"/>
	<line x1="1529.04" y1="1141.93" x2="1593.84" y2="1141.93" style="stroke:#F0F0F0;stroke-width:9.72"/>
	<line x1="1626.24" y1="1141.93" x2="1691.04" y2="1141.93" style="stroke:#F0F0F0;stroke-width:9.72"/>
	<line x1="1723.44" y1="1141.93" x2="1788.24" y2="1141.93" style="stroke:#F0F0F0;stroke-width:9.72"/>
	<line x1="1820.64" y1="1141.93" x2="1885.44" y2="1141.93" style="stroke:#F0F0F0;stroke-width:9.72"/>
	<line x1="1917.84" y1="1141.93" x2="1982.64" y2="1141.93" style="stroke:#F0F0F0;stroke-width:9.72"/>
	<line x1="2015.04" y1="1141.93" x2="2079.84" y2="1141.93" style="stroke:#F0F0F0;stroke-width:9.72"/>
	<line x1="2112.24" y1="1141.93" x2="2177.04" y2="1141.93" style="stroke:#F0F0F0;stroke-width:9.72"/>
	<line x1="2209.44" y1="1141.93" x2="2274.24" y2="1141.93" style="stroke:#F0F0F0;stroke-width:9.72"/>
	<line x1="2306.64" y1="1141.93" x2="2371.44" y2="1141.93" style="stroke:#F0F0F0;stroke-width:9.72"/>
	<line x1="2403.84" y1="1141.93" x2="2468.64" y2="1141.93" style="stroke:#F0F0F0;stroke-width:9.72"/>
	<line x1="2501.04" y1="1141.93" x2="2565.84" y2="1141.93" style="stroke:#F0F0F0;stroke-width:9.72"/>
	<line x1="2598.24" y1="1141.93" x2="2663.04" y2="1141.93" style="stroke:#F0F0F0;stroke-width:9.72"/>
	<line x1="2695.44" y1="1141.93" x2="2760.24" y2="1141.93" style="stroke:#F0F0F0;stroke-width:9.72"/>
	<line x1="2792.64" y1="1141.93" x2="2857.44" y2="1141.93" style="stroke:#F0F0F0;stroke-width:9.72"/>
	<line x1="2889.84" y1="1141.93" x2="2954.64" y2="1141.93" style="stroke:#F0F0F0;stroke-width:9.72"/>
	<line x1="2987.04" y1="1141.93" x2="3051.84" y2="1141.93" style="stroke:#F0F0F0;stroke-width:9.72"/>
	<line x1="3084.24" y1="1141.93" x2="3149.04" y2="1141.93" style="stroke:#F0F0F0;stroke-width:9.72"/>
	<line x1="3181.44" y1="1141.93" x2="3246.24" y2="1141.93" style="stroke:#F0F0F0;stroke-width:9.72"/>
	<line x1="3278.64" y1="1141.93" x2="3343.44" y2="1141.93" style="stroke:#F0F0F0;stroke-width:9.72"/>
	<line x1="3375.84" y1="1141.93" x2="3440.64" y2="1141.93" style="stroke:#F0F0F0;stroke-width:9.72"/>
	<line x1="3473.04" y1="1141.93" x2="3537.84" y2="1141.93" style="stroke:#F0F0F0;stroke-width:9.72"/>
	<line x1="3570.24" y1="1141.93" x2="3635.04" y2="1141.93" style="stroke:#F0F0F0;stroke-width:9.72"/>
	<line x1="3667.44" y1="1141.93" x2="3732.24" y2="1141.93" style="stroke:#F0F0F0;stroke-width:9.72"/>
	<line x1="3764.64" y1="1141.93" x2="3829.44" y2="1141.93" style="stroke:#F0F0F0;stroke-width:9.72"/>
	<line x1="3861.84" y1="1141.93" x2="3926.64" y2="1141.93" style="stroke:#F0F0F0;stroke-width:9.72"/>
	<line x1="3959.04" y1="1141.93" x2="4023.84" y2="1141.93" style="stroke:#F0F0F0;stroke-width:9.72"/>
	<line x1="4056.24" y1="1141.93" x2="4121.04" y2="1141.93" style="stroke:#F0F0F0;stroke-width:9.72"/>
	<line x1="4153.44" y1="1141.93" x2="4218.24" y2="1141.93" style="stroke:#F0F0F0;stroke-width:9.72"/>
	<line x1="4250.64" y1="1141.93" x2="4315.44" y2="1141.93" style="stroke:#F0F0F0;stroke-width:9.72"/>
	<line x1="4347.84" y1="1141.93" x2="4402.18" y2="1141.93" style="stroke:#F0F0F0;stroke-width:9.72"/>
	<line x1="557.04" y1="365.34" x2="621.84" y2="365.34" style="stroke:#F0F0F0;stroke-width:9.72"/>
	<line x1="654.24" y1="365.34" x2="719.04" y2="365.34" style="stroke:#F0F0F0;stroke-width:9.72"/>
	<line x1="751.44" y1="365.34" x2="816.24" y2="365.34" style="stroke:#F0F0F0;stroke-width:9.72"/>
	<line x1="848.64" y1="365.34" x2="913.44" y2="365.34" style="stroke:#F0F0F0;stroke-width:9.72"/>
	<line x1="945.84" y1="365.34" x2="1010.64" y2="365.34" style="stroke:#F0F0F0;stroke-width:9.72"/>
	<line x1="1043.04" y1="365.34" x2="1107.84" y2="365.34" style="stroke:#F0F0F0;stroke-width:9.72"/>
	<line x1="1140.24" y1="365.34" x2="1205.04" y2="365.34" style="stroke:#F0F0F0;stroke-width:9.72"/>
	<line x1="1237.44" y1="365.34" x2="1302.24" y2="365.34" style="stroke:#F0F0F0;stroke-width:9.72"/>
	<line x1="1334.64" y1="365.34" x2="1399.44" y2="365.34" style="stroke:#F0F0F0;stroke-width:9.72"/>
	<line x1="1431.84" y1="365.34" x2="1496.64" y2="365.34" style="stroke:#F0F0F0;stroke-width:9.72"/>
	<line x1="1529.04" y1="365.34" x2="1593.84" y2="365.34" style="stroke:#F0F0F0;stroke-width:9.72"/>
	<line x1="1626.24" y1="365.34" x2="1691.04" y2="365.34" style="stroke:#F0F0F0;stroke-width:9.72"/>
	<line x1="1723.44" y1="365.34" x2="1788.24" y2="365.34" style="stroke:#F0F0F0;stroke-width:9.72"/>
	<line x1="1820.64" y1="365.34" x2="1885.44" y2="365.34" style="stroke:#F0F0F0;stroke-width:9.72"/>
	<line x1="1917.84" y1="365.34" x2="1982.64" y2="365.34" style="stroke:#F0F0F0;stroke-width:9.72"/>
	<line x1="2015.04" y1="365.34" x2="2079.84" y2="365.34" style="stroke:#F0F0F0;stroke-width:9.72"/>
	<line x1="2112.24" y1="365.34" x2="2177.04" y2="365.34" style="stroke:#F0F0F0;stroke-width:9.72"/>
	<line x1="2209.44" y1="365.34" x2="2274.24" y2="365.34" style="stroke:#F0F0F0;stroke-width:9.72"/>
	<line x1="2306.64" y1="365.34" x2="2371.44" y2="365.34" style="stroke:#F0F0F0;stroke-width:9.72"/>
	<line x1="2403.84" y1="365.34" x2="2468.64" y2="365.34" style="stroke:#F0F0F0;stroke-width:9.72"/>
	<line x1="2501.04" y1="365.34" x2="2565.84" y2="365.34" style="stroke:#F0F0F0;stroke-width:9.72"/>
	<line x1="2598.24" y1="365.34" x2="2663.04" y2="365.34" style="stroke:#F0F0F0;stroke-width:9.72"/>
	<line x1="2695.44" y1="365.34" x2="2760.24" y2="365.34" style="stroke:#F0F0F0;stroke-width:9.72"/>
	<line x1="2792.64" y1="365.34" x2="2857.44" y2="365.34" style="stroke:#F0F0F0;stroke-width:9.72"/>
	<line x1="2889.84" y1="365.34" x2="2954.64" y2="365.34" style="stroke:#F0F0F0;stroke-width:9.72"/>
	<line x1="2987.04" y1="365.34" x2="3051.84" y2="365.34" style="stroke:#F0F0F0;stroke-width:9.72"/>
	<line x1="3084.24" y1="365.34" x2="3149.04" y2="365.34" style="stroke:#F0F0F0;stroke-width:9.72"/>
	<line x1="3181.44" y1="365.34" x2="3246.24" y2="365.34" style="stroke:#F0F0F0;stroke-width:9.72"/>
	<line x1="3278.64" y1="365.34" x2="3343.44" y2="365.34" style="stroke:#F0F0F0;stroke-width:9.72"/>
	<line x1="3375.84" y1="365.34" x2="3440.64" y2="365.34" style="stroke:#F0F0F0;stroke-width:9.72"/>
	<line x1="3473.04" y1="365.34" x2="3537.84" y2="365.34" style="stroke:#F0F0F0;stroke-width:9.72"/>
	<line x1="3570.24" y1="365.34" x2="3635.04" y2="365.34" style="stroke:#F0F0F0;stroke-width:9.72"/>
	<line x1="3667.44" y1="365.34" x2="3732.24" y2="365.34" style="stroke:#F0F0F0;stroke-width:9.72"/>
	<line x1="3764.64" y1="365.34" x2="3829.44" y2="365.34" style="stroke:#F0F0F0;stroke-width:9.72"/>
	<line x1="3861.84" y1="365.34" x2="3926.64" y2="365.34" style="stroke:#F0F0F0;stroke-width:9.72"/>
	<line x1="3959.04" y1="365.34" x2="4023.84" y2="365.34" style="stroke:#F0F0F0;stroke-width:9.72"/>
	<line x1="4056.24" y1="365.34" x2="4121.04" y2="365.34" style="stroke:#F0F0F0;stroke-width:9.72"/>
	<line x1="4153.44" y1="365.34" x2="4218.24" y2="365.34" style="stroke:#F0F0F0;stroke-width:9.72"/>
	<line x1="4250.64" y1="365.34" x2="4315.44" y2="365.34" style="stroke:#F0F0F0;stroke-width:9.72"/>
	<line x1="4347.84" y1="365.34" x2="4402.18" y2="365.34" style="stroke:#F0F0F0;stroke-width:9.72"/>
	<line x1="628.26" y1="2766.66" x2="628.26" y2="2701.86" style="stroke:#F0F0F0;stroke-width:9.72"/>
	<line x1="628.26" y1="2669.46" x2="628.26" y2="2604.66" style="stroke:#F0F0F0;stroke-width:9.72"/>
	<line x1="628.26" y1="2572.26" x2="628.26" y2="2507.46" style="stroke:#F0F0F0;stroke-width:9.72"/>
	<line x1="628.26" y1="2475.06" x2="628.26" y2="2410.26" style="stroke:#F0F0F0;stroke-width:9.72"/>
	<line x1="628.26" y1="2377.86" x2="628.26" y2="2313.06" style="stroke:#F0F0F0;stroke-width:9.72"/>
	<line x1="628.26" y1="2280.66" x2="628.26" y2="2215.86" style="stroke:#F0F0F0;stroke-width:9.72"/>
	<line x1="628.26" y1="2183.46" x2="628.26" y2="2118.66" style="stroke:#F0F0F0;stroke-width:9.72"/>
	<line x1="628.26" y1="2086.26" x2="628.26" y2="2021.46" style="stroke:#F0F0F0;stroke-width:9.72"/>
	<line x1="628.26" y1="1989.06" x2="628.26" y2="1924.26" style="stroke:#F0F0F0;stroke-width:9.72"/>
	<line x1="628.26" y1="1891.86" x2="628.26" y2="1827.06" style="stroke:#F0F0F0;stroke-width:9.72"/>
	<line x1="628.26" y1="1794.66" x2="628.26" y2="1729.86" style="stroke:#F0F0F0;stroke-width:9.72"/>
	<line x1="628.26" y1="1697.46" x2="628.26" y2="1632.66" style="stroke:#F0F0F0;stroke-width:9.72"/>
	<line x1="628.26" y1="1600.26" x2="628.26" y2="1535.46" style="stroke:#F0F0F0;stroke-width:9.72"/>
	<line x1="628.26" y1="1503.06" x2="628.26" y2="1438.26" style="stroke:#F0F0F0;stroke-width:9.72"/>
	<line x1="628.26" y1="1405.86" x2="628.26" y2="1341.06" style="stroke:#F0F0F0;stroke-width:9.72"/>
	<line x1="628.26" y1="1308.66" x2="628.26" y2="1243.86" style="stroke:#F0F0F0;stroke-width:9.72"/>
	<line x1="628.26" y1="1211.46" x2="628.26" y2="1146.66" style="stroke:#F0F0F0;stroke-width:9.72"/>
	<line x1="628.26" y1="1114.26" x2="628.26" y2="1049.46" style="stroke:#F0F0F0;stroke-width:9.72"/>
	<line x1="628.26" y1="1017.06" x2="628.26" y2="952.26" style="stroke:#F0F0F0;stroke-width:9.72"/>
	<line x1="628.26" y1="919.86" x2="628.26" y2="855.06" style="stroke:#F0F0F0;stroke-width:9.72"/>
	<line x1="628.26" y1="822.66" x2="628.26" y2="757.86" style="stroke:#F0F0F0;stroke-width:9.72"/>
	<line x1="628.26" y1="725.46" x2="628.26" y2="660.66" style="stroke:#F0F0F0;stroke-width:9.72"/>
	<line x1="628.26" y1="628.26" x2="628.26" y2="563.46" style="stroke:#F0F0F0;stroke-width:9.72"/>
	<line x1="628.26" y1="531.06" x2="628.26" y2="466.26" style="stroke:#F0F0F0;stroke-width:9.72"/>
	<line x1="628.26" y1="433.86" x2="628.26" y2="369.06" style="stroke:#F0F0F0;stroke-width:9.72"/>
	<line x1="628.26" y1="336.66" x2="628.26" y2="293.96" style="stroke:#F0F0F0;stroke-width:9.72"/>
	<line x1="1368.73" y1="2766.66" x2="1368.73" y2="2701.86" style="stroke:#F0F0F0;stroke-width:9.72"/>
	<line x1="1368.73" y1="2669.46" x2="1368.73" y2="2604.66" style="stroke:#F0F0F0;stroke-width:9.72"/>
	<line x1="1368.73" y1="2572.26" x2="1368.73" y2="2507.46" style="stroke:#F0F0F0;stroke-width:9.72"/>
	<line x1="1368.73" y1="2475.06" x2="1368.73" y2="2410.26" style="stroke:#F0F0F0;stroke-width:9.72"/>
	<line x1="1368.73" y1="2377.86" x2="1368.73" y2="2313.06" style="stroke:#F0F0F0;stroke-width:9.72"/>
	<line x1="1368.73" y1="2280.66" x2="1368.73" y2="2215.86" style="stroke:#F0F0F0;stroke-width:9.72"/>
	<line x1="1368.73" y1="2183.46" x2="1368.73" y2="2118.66" style="stroke:#F0F0F0;stroke-width:9.72"/>
	<line x1="1368.73" y1="2086.26" x2="1368.73" y2="2021.46" style="stroke:#F0F0F0;stroke-width:9.72"/>
	<line x1="1368.73" y1="1989.06" x2="1368.73" y2="1924.26" style="stroke:#F0F0F0;stroke-width:9.72"/>
	<line x1="1368.73" y1="1891.86" x2="1368.73" y2="1827.06" style="stroke:#F0F0F0;stroke-width:9.72"/>
	<line x1="1368.73" y1="1794.66" x2="1368.73" y2="1729.86" style="stroke:#F0F0F0;stroke-width:9.72"/>
	<line x1="1368.73" y1="1697.46" x2="1368.73" y2="1632.66" style="stroke:#F0F0F0;stroke-width:9.72"/>
	<line x1="1368.73" y1="1600.26" x2="1368.73" y2="1535.46" style="stroke:#F0F0F0;stroke-width:9.72"/>
	<line x1="1368.73" y1="1503.06" x2="1368.73" y2="1438.26" style="stroke:#F0F0F0;stroke-width:9.72"/>
	<line x1="1368.73" y1="1405.86" x2="1368.73" y2="1341.06" style="stroke:#F0F0F0;stroke-width:9.72"/>
	<line x1="1368.73" y1="1308.66" x2="1368.73" y2="1243.86" style="stroke:#F0F0F0;stroke-width:9.72"/>
	<line x1="1368.73" y1="1211.46" x2="1368.73" y2="1146.66" style="stroke:#F0F0F0;stroke-width:9.72"/>
	<line x1="1368.73" y1="1114.26" x2="1368.73" y2="1049.46" style="stroke:#F0F0F0;stroke-width:9.72"/>
	<line x1="1368.73" y1="1017.06" x2="1368.73" y2="952.26" style="stroke:#F0F0F0;stroke-width:9.72"/>
	<line x1="1368.73" y1="919.86" x2="1368.73" y2="855.06" style="stroke:#F0F0F0;stroke-width:9.72"/>
	<line x1="1368.73" y1="822.66" x2="1368.73" y2="757.86" style="stroke:#F0F0F0;stroke-width:9.72"/>
	<line x1="1368.73" y1="725.46" x2="1368.73" y2="660.66" style="stroke:#F0F0F0;stroke-width:9.72"/>
	<line x1="1368.73" y1="628.26" x2="1368.73" y2="563.46" style="stroke:#F0F0F0;stroke-width:9.72"/>
	<line x1="1368.73" y1="531.06" x2="1368.73" y2="466.26" style="stroke:#F0F0F0;stroke-width:9.72"/>
	<line x1="1368.73" y1="433.86" x2="1368.73" y2="369.06" style="stroke:#F0F0F0;stroke-width:9.72"/>
	<line x1="1368.73" y1="336.66" x2="1368.73" y2="293.96" style="stroke:#F0F0F0;stroke-width:9.72"/>
	<line x1="2109.38" y1="2766.66" x2="2109.38" y2="2701.86" style="stroke:#F0F0F0;stroke-width:9.72"/>
	<line x1="2109.38" y1="2669.46" x2="2109.38" y2="2604.66" style="stroke:#F0F0F0;stroke-width:9.72"/>
	<line x1="2109.38" y1="2572.26" x2="2109.38" y2="2507.46" style="stroke:#F0F0F0;stroke-width:9.72"/>
	<line x1="2109.38" y1="2475.06" x2="2109.38" y2="2410.26" style="stroke:#F0F0F0;stroke-width:9.72"/>
	<line x1="2109.38" y1="2377.86" x2="2109.38" y2="2313.06" style="stroke:#F0F0F0;stroke-width:9.72"/>
	<line x1="2109.38" y1="2280.66" x2="2109.38" y2="2215.86" style="stroke:#F0F0F0;stroke-width:9.72"/>
	<line x1="2109.38" y1="2183.46" x2="2109.38" y2="2118.66" style="stroke:#F0F0F0;stroke-width:9.72"/>
	<line x1="2109.38" y1="2086.26" x2="2109.38" y2="2021.46" style="stroke:#F0F0F0;stroke-width:9.72"/>
	<line x1="2109.38" y1="1989.06" x2="2109.38" y2="1924.26" style="stroke:#F0F0F0;stroke-width:9.72"/>
	<line x1="2109.38" y1="1891.86" x2="2109.38" y2="1827.06" style="stroke:#F0F0F0;stroke-width:9.72"/>
	<line x1="2109.38" y1="1794.66" x2="2109.38" y2="1729.86" style="stroke:#F0F0F0;stroke-width:9.72"/>
	<line x1="2109.38" y1="1697.46" x2="2109.38" y2="1632.66" style="stroke:#F0F0F0;stroke-width:9.72"/>
	<line x1="2109.38" y1="1600.26" x2="2109.38" y2="1535.46" style="stroke:#F0F0F0;stroke-width:9.72"/>
	<line x1="2109.38" y1="1503.06" x2="2109.38" y2="1438.26" style="stroke:#F0F0F0;stroke-width:9.72"/>
	<line x1="2109.38" y1="1405.86" x2="2109.38" y2="1341.06" style="stroke:#F0F0F0;stroke-width:9.72"/>
	<line x1="2109.38" y1="1308.66" x2="2109.38" y2="1243.86" style="stroke:#F0F0F0;stroke-width:9.72"/>
	<line x1="2109.38" y1="1211.46" x2="2109.38" y2="1146.66" style="stroke:#F0F0F0;stroke-width:9.72"/>
	<line x1="2109.38" y1="1114.26" x2="2109.38" y2="1049.46" style="stroke:#F0F0F0;stroke-width:9.72"/>
	<line x1="2109.38" y1="1017.06" x2="2109.38" y2="952.26" style="stroke:#F0F0F0;stroke-width:9.72"/>
	<line x1="2109.38" y1="919.86" x2="2109.38" y2="855.06" style="stroke:#F0F0F0;stroke-width:9.72"/>
	<line x1="2109.38" y1="822.66" x2="2109.38" y2="757.86" style="stroke:#F0F0F0;stroke-width:9.72"/>
	<line x1="2109.38" y1="725.46" x2="2109.38" y2="660.66" style="stroke:#F0F0F0;stroke-width:9.72"/>
	<line x1="2109.38" y1="628.26" x2="2109.38" y2="563.46" style="stroke:#F0F0F0;stroke-width:9.72"/>
	<line x1="2109.38" y1="531.06" x2="2109.38" y2="466.26" style="stroke:#F0F0F0;stroke-width:9.72"/>
	<line x1="2109.38" y1="433.86" x2="2109.38" y2="369.06" style="stroke:#F0F0F0;stroke-width:9.72"/>
	<line x1="2109.38" y1="336.66" x2="2109.38" y2="293.96" style="stroke:#F0F0F0;stroke-width:9.72"/>
	<line x1="2849.85" y1="2766.66" x2="2849.85" y2="2701.86" style="stroke:#F0F0F0;stroke-width:9.72"/>
	<line x1="2849.85" y1="2669.46" x2="2849.85" y2="2604.66" style="stroke:#F0F0F0;stroke-width:9.72"/>
	<line x1="2849.85" y1="2572.26" x2="2849.85" y2="2507.46" style="stroke:#F0F0F0;stroke-width:9.72"/>
	<line x1="2849.85" y1="2475.06" x2="2849.85" y2="2410.26" style="stroke:#F0F0F0;stroke-width:9.72"/>
	<line x1="2849.85" y1="2377.86" x2="2849.85" y2="2313.06" style="stroke:#F0F0F0;stroke-width:9.72"/>
	<line x1="2849.85" y1="2280.66" x2="2849.85" y2="2215.86" style="stroke:#F0F0F0;stroke-width:9.72"/>
	<line x1="2849.85" y1="2183.46" x2="2849.85" y2="2118.66" style="stroke:#F0F0F0;stroke-width:9.72"/>
	<line x1="2849.85" y1="2086.26" x2="2849.85" y2="2021.46" style="stroke:#F0F0F0;stroke-width:9.72"/>
	<line x1="2849.85" y1="1989.06" x2="2849.85" y2="1924.26" style="stroke:#F0F0F0;stroke-width:9.72"/>
	<line x1="2849.85" y1="1891.86" x2="2849.85" y2="1827.06" style="stroke:#F0F0F0;stroke-width:9.72"/>
	<line x1="2849.85" y1="1794.66" x2="2849.85" y2="1729.86" style="stroke:#F0F0F0;stroke-width:9.72"/>
	<line x1="2849.85" y1="1697.46" x2="2849.85" y2="1632.66" style="stroke:#F0F0F0;stroke-width:9.72"/>
	<line x1="2849.85" y1="1600.26" x2="2849.85" y2="1535.46" style="stroke:#F0F0F0;stroke-width:9.72"/>
	<line x1="2849.85" y1="1503.06" x2="2849.85" y2="1438.26" style="stroke:#F0F0F0;stroke-width:9.72"/>
	<line x1="2849.85" y1="1405.86" x2="2849.85" y2="1341.06" style="stroke:#F0F0F0;stroke-width:9.72"/>
	<line x1="2849.85" y1="1308.66" x2="2849.85" y2="1243.86" style="stroke:#F0F0F0;stroke-width:9.72"/>
	<line x1="2849.85" y1="1211.46" x2="2849.85" y2="1146.66" style="stroke:#F0F0F0;stroke-width:9.72"/>
	<line x1="2849.85" y1="1114.26" x2="2849.85" y2="1049.46" style="stroke:#F0F0F0;stroke-width:9.72"/>
	<line x1="2849.85" y1="1017.06" x2="2849.85" y2="952.26" style="stroke:#F0F0F0;stroke-width:9.72"/>
	<line x1="2849.85" y1="919.86" x2="2849.85" y2="855.06" style="stroke:#F0F0F0;stroke-width:9.72"/>
	<line x1="2849.85" y1="822.66" x2="2849.85" y2="757.86" style="stroke:#F0F0F0;stroke-width:9.72"/>
	<line x1="2849.85" y1="725.46" x2="2849.85" y2="660.66" style="stroke:#F0F0F0;stroke-width:9.72"/>
	<line x1="2849.85" y1="628.26" x2="2849.85" y2="563.46" style="stroke:#F0F0F0;stroke-width:9.72"/>
	<line x1="2849.85" y1="531.06" x2="2849.85" y2="466.26" style="stroke:#F0F0F0;stroke-width:9.72"/>
	<line x1="2849.85" y1="433.86" x2="2849.85" y2="369.06" style="stroke:#F0F0F0;stroke-width:9.72"/>
	<line x1="2849.85" y1="336.66" x2="2849.85" y2="293.96" style="stroke:#F0F0F0;stroke-width:9.72"/>
	<line x1="3590.33" y1="2766.66" x2="3590.33" y2="2701.86" style="stroke:#F0F0F0;stroke-width:9.72"/>
	<line x1="3590.33" y1="2669.46" x2="3590.33" y2="2604.66" style="stroke:#F0F0F0;stroke-width:9.72"/>
	<line x1="3590.33" y1="2572.26" x2="3590.33" y2="2507.46" style="stroke:#F0F0F0;stroke-width:9.72"/>
	<line x1="3590.33" y1="2475.06" x2="3590.33" y2="2410.26" style="stroke:#F0F0F0;stroke-width:9.72"/>
	<line x1="3590.33" y1="2377.86" x2="3590.33" y2="2313.06" style="stroke:#F0F0F0;stroke-width:9.72"/>
	<line x1="3590.33" y1="2280.66" x2="3590.33" y2="2215.86" style="stroke:#F0F0F0;stroke-width:9.72"/>
	<line x1="3590.33" y1="2183.46" x2="3590.33" y2="2118.66" style="stroke:#F0F0F0;stroke-width:9.72"/>
	<line x1="3590.33" y1="2086.26" x2="3590.33" y2="2021.46" style="stroke:#F0F0F0;stroke-width:9.72"/>
	<line x1="3590.33" y1="1989.06" x2="3590.33" y2="1924.26" style="stroke:#F0F0F0;stroke-width:9.72"/>
	<line x1="3590.33" y1="1891.86" x2="3590.33" y2="1827.06" style="stroke:#F0F0F0;stroke-width:9.72"/>
	<line x1="3590.33" y1="1794.66" x2="3590.33" y2="1729.86" style="stroke:#F0F0F0;stroke-width:9.72"/>
	<line x1="3590.33" y1="1697.46" x2="3590.33" y2="1632.66" style="stroke:#F0F0F0;stroke-width:9.72"/>
	<line x1="3590.33" y1="1600.26" x2="3590.33" y2="1535.46" style="stroke:#F0F0F0;stroke-width:9.72"/>
	<line x1="3590.33" y1="1503.06" x2="3590.33" y2="1438.26" style="stroke:#F0F0F0;stroke-width:9.72"/>
	<line x1="3590.33" y1="1405.86" x2="3590.33" y2="1341.06" style="stroke:#F0F0F0;stroke-width:9.72"/>
	<line x1="3590.33" y1="1308.66" x2="3590.33" y2="1243.86" style="stroke:#F0F0F0;stroke-width:9.72"/>
	<line x1="3590.33" y1="1211.46" x2="3590.33" y2="1146.66" style="stroke:#F0F0F0;stroke-width:9.72"/>
	<line x1="3590.33" y1="1114.26" x2="3590.33" y2="1049.46" style="stroke:#F0F0F0;stroke-width:9.72"/>
	<line x1="3590.33" y1="1017.06" x2="3590.33" y2="952.26" style="stroke:#F0F0F0;stroke-width:9.72"/>
	<line x1="3590.33" y1="919.86" x2="3590.33" y2="855.06" style="stroke:#F0F0F0;stroke-width:9.72"/>
	<line x1="3590.33" y1="822.66" x2="3590.33" y2="757.86" style="stroke:#F0F0F0;stroke-width:9.72"/>
	<line x1="3590.33" y1="725.46" x2="3590.33" y2="660.66" style="stroke:#F0F0F0;stroke-width:9.72"/>
	<line x1="3590.33" y1="628.26" x2="3590.33" y2="563.46" style="stroke:#F0F0F0;stroke-width:9.72"/>
	<line x1="3590.33" y1="531.06" x2="3590.33" y2="466.26" style="stroke:#F0F0F0;stroke-width:9.72"/>
	<line x1="3590.33" y1="433.86" x2="3590.33" y2="369.06" style="stroke:#F0F0F0;stroke-width:9.72"/>
	<line x1="3590.33" y1="336.66" x2="3590.33" y2="293.96" style="stroke:#F0F0F0;stroke-width:9.72"/>
	<line x1="4330.97" y1="2766.66" x2="4330.97" y2="2701.86" style="stroke:#F0F0F0;stroke-width:9.72"/>
	<line x1="4330.97" y1="2669.46" x2="4330.97" y2="2604.66" style="stroke:#F0F0F0;stroke-width:9.72"/>
	<line x1="4330.97" y1="2572.26" x2="4330.97" y2="2507.46" style="stroke:#F0F0F0;stroke-width:9.72"/>
	<line x1="4330.97" y1="2475.06" x2="4330.97" y2="2410.26" style="stroke:#F0F0F0;stroke-width:9.72"/>
	<line x1="4330.97" y1="2377.86" x2="4330.97" y2="2313.06" style="stroke:#F0F0F0;stroke-width:9.72"/>
	<line x1="4330.97" y1="2280.66" x2="4330.97" y2="2215.86" style="stroke:#F0F0F0;stroke-width:9.72"/>
	<line x1="4330.97" y1="2183.46" x2="4330.97" y2="2118.66" style="stroke:#F0F0F0;stroke-width:9.72"/>
	<line x1="4330.97" y1="2086.26" x2="4330.97" y2="2021.46" style="stroke:#F0F0F0;stroke-width:9.72"/>
	<line x1="4330.97" y1="1989.06" x2="4330.97" y2="1924.26" style="stroke:#F0F0F0;stroke-width:9.72"/>
	<line x1="4330.97" y1="1891.86" x2="4330.97" y2="1827.06" style="stroke:#F0F0F0;stroke-width:9.72"/>
	<line x1="4330.97" y1="1794.66" x2="4330.97" y2="1729.86" style="stroke:#F0F0F0;stroke-width:9.72"/>
	<line x1="4330.97" y1="1697.46" x2="4330.97" y2="1632.66" style="stroke:#F0F0F0;stroke-width:9.72"/>
	<line x1="4330.97" y1="1600.26" x2="4330.97" y2="1535.46" style="stroke:#F0F0F0;stroke-width:9.72"/>
	<line x1="4330.97" y1="1503.06" x2="4330.97" y2="1438.26" style="stroke:#F0F0F0;stroke-width:9.72"/>
	<line x1="4330.97" y1="1405.86" x2="4330.97" y2="1341.06" style="stroke:#F0F0F0;stroke-width:9.72"/>
	<line x1="4330.97" y1="1308.66" x2="4330.97" y2="1243.86" style="stroke:#F0F0F0;stroke-width:9.72"/>
	<line x1="4330.97" y1="1211.46" x2="4330.97" y2="1146.66" style="stroke:#F0F0F0;stroke-width:9.72"/>
	<line x1="4330.97" y1="1114.26" x2="4330.97" y2="1049.46" style="stroke:#F0F0F0;stroke-width:9.72"/>
	<line x1="4330.97" y1="1017.06" x2="4330.97" y2="952.26" style="stroke:#F0F0F0;stroke-width:9.72"/>
	<line x1="4330.97" y1="919.86" x2="4330.97" y2="855.06" style="stroke:#F0F0F0;stroke-width:9.72"/>
	<line x1="4330.97" y1="822.66" x2="4330.97" y2="757.86" style="stroke:#F0F0F0;stroke-width:9.72"/>
	<line x1="4330.97" y1="725.46" x2="4330.97" y2="660.66" style="stroke:#F0F0F0;stroke-width:9.72"/>
	<line x1="4330.97" y1="628.26" x2="4330.97" y2="563.46" style="stroke:#F0F0F0;stroke-width:9.72"/>
	<line x1="4330.97" y1="531.06" x2="4330.97" y2="466.26" style="stroke:#F0F0F0;stroke-width:9.72"/>
	<line x1="4330.97" y1="433.86" x2="4330.97" y2="369.06" style="stroke:#F0F0F0;stroke-width:9.72"/>
	<line x1="4330.97" y1="336.66" x2="4330.97" y2="293.96" style="stroke:#F0F0F0;stroke-width:9.72"/>
	<line x1="628.26" y1="2668.95" x2="628.26" y2="2608.71" style="stroke:#1A85FF;stroke-width:9.72"/>
	<line x1="611.38" y1="2608.71" x2="645.13" y2="2608.71" stroke-linecap="round" style="stroke:#1A85FF;stroke-width:9.72"/>
	<line x1="611.38" y1="2668.95" x2="645.13" y2="2668.95" stroke-linecap="round" style="stroke:#1A85FF;stroke-width:9.72"/>
	<line x1="1368.73" y1="2627.94" x2="1368.73" y2="2532.94" style="stroke:#1A85FF;stroke-width:9.72"/>
	<line x1="1351.86" y1="2532.94" x2="1385.61" y2="2532.94" stroke-linecap="round" style="stroke:#1A85FF;stroke-width:9.72"/>
	<line x1="1351.86" y1="2627.94" x2="1385.61" y2="2627.94" stroke-linecap="round" style="stroke:#1A85FF;stroke-width:9.72"/>
	<line x1="2109.38" y1="2531.93" x2="2109.38" y2="2393.04" style="stroke:#1A85FF;stroke-width:9.72"/>
	<line x1="2092.50" y1="2393.04" x2="2126.25" y2="2393.04" stroke-linecap="round" style="stroke:#1A85FF;stroke-width:9.72"/>
	<line x1="2092.50" y1="2531.93" x2="2126.25" y2="2531.93" stroke-linecap="round" style="stroke:#1A85FF;stroke-width:9.72"/>
	<line x1="2849.85" y1="2318.29" x2="2849.85" y2="2135.70" style="stroke:#1A85FF;stroke-width:9.72"/>
	<line x1="2832.98" y1="2135.70" x2="2866.73" y2="2135.70" stroke-linecap="round" style="stroke:#1A85FF;stroke-width:9.72"/>
	<line x1="2832.98" y1="2318.29" x2="2866.73" y2="2318.29" stroke-linecap="round" style="stroke:#1A85FF;stroke-width:9.72"/>
	<line x1="3590.33" y1="1890.51" x2="3590.33" y2="1645.48" style="stroke:#1A85FF;stroke-width:9.72"/>
	<line x1="3573.45" y1="1645.48" x2="3607.20" y2="1645.48" stroke-linecap="round" style="stroke:#1A85FF;stroke-width:9.72"/>
	<line x1="3573.45" y1="1890.51" x2="3607.20" y2="1890.51" stroke-linecap="round" style="stroke:#1A85FF;stroke-width:9.72"/>
	<line x1="4330.97" y1="1184.63" x2="4330.97" y2="639.90" style="stroke:#1A85FF;stroke-width:9.72"/>
	<line x1="4314.09" y1="639.90" x2="4347.84" y2="639.90" stroke-linecap="round" style="stroke:#1A85FF;stroke-width:9.72"/>
	<line x1="4314.09" y1="1184.63" x2="4347.84" y2="1184.63" stroke-linecap="round" style="stroke:#1A85FF;stroke-width:9.72"/>
	<line x1="628.26" y1="2600.27" x2="628.26" y2="2488.05" style="stroke:#D41159;stroke-width:9.72"/>
	<line x1="611.38" y1="2488.05" x2="645.13" y2="2488.05" stroke-linecap="round" style="stroke:#D41159;stroke-width:9.72"/>
	<line x1="611.38" y1="2600.27" x2="645.13" y2="2600.27" stroke-linecap="round" style="stroke:#D41159;stroke-width:9.72"/>
	<line x1="1368.73" y1="2517.07" x2="1368.73" y2="2374.48" style="stroke:#D41159;stroke-width:9.72"/>
	<line x1="1351.86" y1="2374.48" x2="1385.61" y2="2374.48" stroke-linecap="round" style="stroke:#D41159;stroke-width:9.72"/>
	<line x1="1351.86" y1="2517.07" x2="1385.61" y2="2517.07" stroke-linecap="round" style="stroke:#D41159;stroke-width:9.72"/>
	<line x1="2109.38" y1="2369.59" x2="2109.38" y2="2200.67" style="stroke:#D41159;stroke-width:9.72"/>
	<line x1="2092.50" y1="2200.67" x2="2126.25" y2="2200.67" stroke-linecap="round" style="stroke:#D41159;stroke-width:9.72"/>
	<line x1="2092.50" y1="2369.59" x2="2126.25" y2="2369.59" stroke-linecap="round" style="stroke:#D41159;stroke-width:9.72"/>
	<line x1="2849.85" y1="2119.67" x2="2849.85" y2="1931.51" style="stroke:#D41159;stroke-width:9.72"/>
	<line x1="2832.98" y1="1931.51" x2="2866.73" y2="1931.51" stroke-linecap="round" style="stroke:#D41159;stroke-width:9.72"/>
	<line x1="2832.98" y1="2119.67" x2="2866.73" y2="2119.67" stroke-linecap="round" style="stroke:#D41159;stroke-width:9.72"/>
	<line x1="3590.33" y1="1736.27" x2="3590.33" y2="1490.91" style="stroke:#D41159;stroke-width:9.72"/>
	<line x1="3573.45" y1="1490.91" x2="3607.20" y2="1490.91" stroke-linecap="round" style="stroke:#D41159;stroke-width:9.72"/>
	<line x1="3573.45" y1="1736.27" x2="3607.20" y2="1736.27" stroke-linecap="round" style="stroke:#D41159;stroke-width:9.72"/>
	<line x1="4330.97" y1="1216.86" x2="4330.97" y2="737.78" style="stroke:#D41159;stroke-width:9.72"/>
	<line x1="4314.09" y1="737.78" x2="4347.84" y2="737.78" stroke-linecap="round" style="stroke:#D41159;stroke-width:9.72"/>
	<line x1="4314.09" y1="1216.86" x2="4347.84" y2="1216.86" stroke-linecap="round" style="stroke:#D41159;stroke-width:9.72"/>
	<path d=" M628.26 2638.91 L1368.73 2580.53 L2109.21 2462.57 L2849.85 2227.16 L3590.33 1768.16 L4330.80 912.26" stroke-linejoin="round" style="fill:none;stroke:#1A85FF;stroke-width:9.72"/>
	<circle cx="628.26" cy="2638.91" r="21.74" style="fill:#1A85FF"/>
	<circle cx="628.26" cy="2638.91" r="16.88" style="fill:none;stroke:#1A85FF;stroke-width:9.72"/>
	<circle cx="1368.73" cy="2580.53" r="21.74" style="fill:#1A85FF"/>
	<circle cx="1368.73" cy="2580.53" r="16.88" style="fill:none;stroke:#1A85FF;stroke-width:9.72"/>
	<circle cx="2109.21" cy="2462.57" r="21.74" style="fill:#1A85FF"/>
	<circle cx="2109.21" cy="2462.57" r="16.88" style="fill:none;stroke:#1A85FF;stroke-width:9.72"/>
	<circle cx="2849.85" cy="2227.16" r="21.74" style="fill:#1A85FF"/>
	<circle cx="2849.85" cy="2227.16" r="16.88" style="fill:none;stroke:#1A85FF;stroke-width:9.72"/>
	<circle cx="3590.33" cy="1768.16" r="21.74" style="fill:#1A85FF"/>
	<circle cx="3590.33" cy="1768.16" r="16.88" style="fill:none;stroke:#1A85FF;stroke-width:9.72"/>
	<circle cx="4330.80" cy="912.26" r="21.74" style="fill:#1A85FF"/>
	<circle cx="4330.80" cy="912.26" r="16.88" style="fill:none;stroke:#1A85FF;stroke-width:9.72"/>
	<path d=" M628.26 2544.24 L1368.73 2445.86 L2109.21 2285.21 L2849.85 2025.68 L3590.33 1613.59 L4330.80 977.40" stroke-linejoin="round" style="fill:none;stroke:#D41159;stroke-width:9.72"/>
	<circle cx="628.26" cy="2544.24" r="21.74" style="fill:#D41159"/>
	<circle cx="628.26" cy="2544.24" r="16.88" style="fill:none;stroke:#D41159;stroke-width:9.72"/>
	<circle cx="1368.73" cy="2445.86" r="21.74" style="fill:#D41159"/>
	<circle cx="1368.73" cy="2445.86" r="16.88" style="fill:none;stroke:#D41159;stroke-width:9.72"/>
	<circle cx="2109.21" cy="2285.21" r="21.74" style="fill:#D41159"/>
	<circle cx="2109.21" cy="2285.21" r="16.88" style="fill:none;stroke:#D41159;stroke-width:9.72"/>
	<circle cx="2849.85" cy="2025.68" r="21.74" style="fill:#D41159"/>
	<circle cx="2849.85" cy="2025.68" r="16.88" style="fill:none;stroke:#D41159;stroke-width:9.72"/>
	<circle cx="3590.33" cy="1613.59" r="21.74" style="fill:#D41159"/>
	<circle cx="3590.33" cy="1613.59" r="16.88" style="fill:none;stroke:#D41159;stroke-width:9.72"/>
	<circle cx="4330.80" cy="977.40" r="21.74" style="fill:#D41159"/>
	<circle cx="4330.80" cy="977.40" r="16.88" style="fill:none;stroke:#D41159;stroke-width:9.72"/>
	<line x1="557.04" y1="2766.66" x2="557.04" y2="293.96" style="stroke:#000000;stroke-width:6.48"/>
	<line x1="557.04" y1="2695.28" x2="511.99" y2="2695.28" style="stroke:#000000;stroke-width:6.48"/>
	<text x="489.54" y="2734.71" style="font-family:'Helvetica';font-size:112.56px;fill:#000000" text-anchor="end">0</text>
	<line x1="557.04" y1="1918.69" x2="511.99" y2="1918.69" style="stroke:#000000;stroke-width:6.48"/>
	<text x="489.54" y="1958.12" style="font-family:'Helvetica';font-size:112.56px;fill:#000000" text-anchor="end">.05</text>
	<line x1="557.04" y1="1141.93" x2="511.99" y2="1141.93" style="stroke:#000000;stroke-width:6.48"/>
	<text x="489.54" y="1181.37" style="font-family:'Helvetica';font-size:112.56px;fill:#000000" text-anchor="end">.1</text>
	<line x1="557.04" y1="365.34" x2="511.99" y2="365.34" style="stroke:#000000;stroke-width:6.48"/>
	<text x="489.54" y="404.78" style="font-family:'Helvetica';font-size:112.56px;fill:#000000" text-anchor="end">.15</text>
	<text x="214.55" y="1530.39" style="font-family:'Helvetica';font-size:112.56px;fill:#000000" transform="rotate(-90 214.55,1530.39)" text-anchor="middle">Pr(diabetes)</text>
	<line x1="557.04" y1="2766.66" x2="4402.18" y2="2766.66" style="stroke:#000000;stroke-width:6.48"/>
	<line x1="628.26" y1="2766.66" x2="628.26" y2="2811.54" style="stroke:#000000;stroke-width:6.48"/>
	<text x="628.26" y="2912.86" style="font-family:'Helvetica';font-size:112.56px;fill:#000000" text-anchor="middle">20</text>
	<line x1="1368.73" y1="2766.66" x2="1368.73" y2="2811.54" style="stroke:#000000;stroke-width:6.48"/>
	<text x="1368.73" y="2912.86" style="font-family:'Helvetica';font-size:112.56px;fill:#000000" text-anchor="middle">30</text>
	<line x1="2109.38" y1="2766.66" x2="2109.38" y2="2811.54" style="stroke:#000000;stroke-width:6.48"/>
	<text x="2109.38" y="2912.86" style="font-family:'Helvetica';font-size:112.56px;fill:#000000" text-anchor="middle">40</text>
	<line x1="2849.85" y1="2766.66" x2="2849.85" y2="2811.54" style="stroke:#000000;stroke-width:6.48"/>
	<text x="2849.85" y="2912.86" style="font-family:'Helvetica';font-size:112.56px;fill:#000000" text-anchor="middle">50</text>
	<line x1="3590.33" y1="2766.66" x2="3590.33" y2="2811.54" style="stroke:#000000;stroke-width:6.48"/>
	<text x="3590.33" y="2912.86" style="font-family:'Helvetica';font-size:112.56px;fill:#000000" text-anchor="middle">60</text>
	<line x1="4330.97" y1="2766.66" x2="4330.97" y2="2811.54" style="stroke:#000000;stroke-width:6.48"/>
	<text x="4330.97" y="2912.86" style="font-family:'Helvetica';font-size:112.56px;fill:#000000" text-anchor="middle">70</text>
	<text x="2479.61" y="3070.31" style="font-family:'Helvetica';font-size:112.56px;fill:#000000" text-anchor="middle">Age (years)</text>
	<rect x="4441.16" y="1346.79" width="806.63" height="367.20" style="fill:#FFFFFF"/>
	<rect x="4444.40" y="1350.03" width="800.15" height="360.72" style="fill:none;stroke:#FFFFFF;stroke-width:6.48"/>
	<line x1="4489.76" y1="1451.59" x2="4748.96" y2="1451.59" style="stroke:#1A85FF;stroke-width:9.72"/>
	<circle cx="4619.36" cy="1451.59" r="21.74" style="fill:#1A85FF"/>
	<circle cx="4619.36" cy="1451.59" r="16.88" style="fill:none;stroke:#1A85FF;stroke-width:9.72"/>
	<line x1="4489.76" y1="1609.03" x2="4748.96" y2="1609.03" style="stroke:#D41159;stroke-width:9.72"/>
	<circle cx="4619.36" cy="1609.03" r="21.74" style="fill:#D41159"/>
	<circle cx="4619.36" cy="1609.03" r="16.88" style="fill:none;stroke:#D41159;stroke-width:9.72"/>
	<text x="4816.46" y="1491.02" style="font-family:'Helvetica';font-size:112.56px;fill:#000000">Male</text>
	<text x="4816.46" y="1648.47" style="font-family:'Helvetica';font-size:112.56px;fill:#000000">Female</text>
	<text x="2700.00" y="231.95" style="font-family:'Helvetica';font-size:141.75px;fill:#000000" text-anchor="middle">Adjusted predictions of female with 95% CIs</text>
</svg>
